<svg xmlns="http://www.w3.org/2000/svg" width="5" height="8" viewBox="0 0 5 8"><path fill="#fff" d="M1.37 5.07v-.38c0-.32.07-.61.21-.85.14-.24.39-.49.76-.76.36-.26.59-.46.7-.62a.87.87 0 0 0 .17-.54.58.58 0 0 0-.24-.5 1.2 1.2 0 0 0-.68-.17c-.51 0-1.09.17-1.74.5L0 .63A4.86 4.86 0 0 1 2.4 0c.7 0 1.25.17 1.67.5.41.34.61.78.61 1.34 0 .38-.08.7-.25.97a3.6 3.6 0 0 1-.97.91c-.32.24-.53.43-.61.55a.83.83 0 0 0-.13.49v.31zM1.21 6.8c0 .28.08.49.23.64.16.15.38.23.66.23s.5-.08.65-.23a.86.86 0 0 0 .24-.64.84.84 0 0 0-.24-.64.93.93 0 0 0-.65-.22c-.29 0-.51.07-.66.22-.16.15-.23.36-.23.64z"/></svg>