<svg xmlns="http://www.w3.org/2000/svg" width="23" height="27" viewBox="0 0 23 27"><path fill="#e62e04" d="M5.35 4.6H3.31c-.95 0-1.7.77-1.73 1.69L1 21.8c-.03.97.78 1.75 1.73 1.75h10.74a4.62 4.62 0 0 0 8.91-1.72 4.63 4.63 0 0 0-3.05-4.32l-.42-11.22a1.74 1.74 0 0 0-1.73-1.69h-2.04a4.9 4.9 0 0 0-9.79 0zm8.63 0H6.51a3.72 3.72 0 0 1 3.73-3.45 3.73 3.73 0 0 1 3.74 3.45zM5.33 5.75v1.53c-.67.24-1.15.88-1.15 1.62 0 .95.78 1.73 1.73 1.73s1.73-.78 1.73-1.73c0-.74-.48-1.38-1.15-1.62V5.75H14v1.53c-.67.24-1.16.88-1.16 1.62a1.74 1.74 0 0 0 3.47 0c0-.74-.49-1.38-1.16-1.62V5.75h2.03c.33 0 .56.23.57.59l.41 10.92a4.62 4.62 0 0 0-4.98 5.15H2.73a.56.56 0 0 1-.57-.56l.57-15.51c.02-.36.25-.59.58-.59zM6.49 8.9c0 .33-.25.58-.58.58a.57.57 0 1 1 0-1.15c.33 0 .58.25.58.57zm8.66 0c0 .33-.25.58-.57.58A.57.57 0 0 1 14 8.9c0-.32.25-.57.58-.57.32 0 .57.25.57.57zm6.07 12.93a3.45 3.45 0 0 1-3.47 3.45 3.45 3.45 0 1 1 0-6.9 3.45 3.45 0 0 1 3.47 3.45zm-3.47-2.58c.17 0 .31.07.42.18.48.43.95.96 1.43 1.42.24.23.23.59 0 .81a.56.56 0 0 1-.81 0l-.46-.46v2.64c0 .32-.26.58-.58.58a.58.58 0 0 1-.57-.58V21.2l-.46.46a.57.57 0 0 1-.82 0 .57.57 0 0 1 0-.81c.47-.47.97-.98 1.44-1.42.1-.11.25-.18.41-.18z"/></svg>