<svg xmlns="http://www.w3.org/2000/svg" width="83" height="19" viewBox="0 0 83 19"><path fill="#666" d="M16.96 14.4c.91-2.85 1.77-4.75 2.69-7.49.33-.95.61-1.49.51-2.02-.16-.88-.74-1.11-1.32-.37-.09.14-.18.25-.25.39-.35.58-.65 1.19-1.05 1.88-1.2 2.09-2.11 4.83-2.73 5.76-.81 1.29-1.95 1.04-2.3-.26-.92.67-2.04-.05-1.99-1.23.02-1.04.3-2.39.44-3.46.19-1.32.56-4.68.53-6.49-.02-.23-.04-.4-.09-.56-.21-.63-.83-.69-1.37-.32-.3.21-.55.65-.69 1.23-.23.83-.3 1.74-.42 2.64a76.1 76.1 0 0 1-1.3 6.43c-.72 1.46-3.24-1-5.12-1.56-2.06-.58-3.36.49-1.83 1.42 1.02.62 4.43 3.29 5.26 4.2.21.21.26.23.46.41.31.31.49.58.82.86 1.9 1.74 5.23 2.55 7.76 1.26.51-.28.63-.4 1-.77.6-.63.74-1.16.99-1.95M49 17.65h2.74l1.13-5.26c1.51-.19 1.55.85 1.79 1.99l.6 3.27h2.78l-.67-3.34a4.02 4.02 0 0 0-.84-1.81c-.18-.18-.34-.28-.55-.44.44-.28.79-.39 1.13-.6a4.39 4.39 0 0 0 1.63-1.72c.64-1.14.97-2.88.32-4.15-.65-1.32-1.72-1.58-3.62-1.58-1.73 0-3.45-.02-5.19 0l-.42 2.16h1.49zm5.17-11.46c1.2-.05 3.2-.35 2.32 2.3-.63 1.88-1.81 1.76-3.16 1.74zM74 17.64h2.43l.86-3.83c1.04-.09 1.14.47 1.37 1.58l.44 2.25 2.53-.02-.35-1.72c-.37-1.62-.23-1.92-1.18-2.94l2.87-4.18-2.6.02c-.64.88-1.22 1.97-1.8 2.88h-.82c-.04-.77 1.35-6.17 1.56-7.68h-4.04l-.39 2.16h1.46c-.23 1.83-2.32 10.55-2.34 11.48M27.74 14.09h-2.27l-.3 1.37h-1.83L25.73 4l-4.39.05-.51 2.11h1.6L20 17.64l7-.02"/><path fill="#666" d="M60.81 18.27c2.25.23 3.38-.61 4.08-1.51.63-.82.83-1.44 1.09-2.44.37-1.34.58-2.9-.28-4.06-.91-1.23-2.74-1.62-4.47-.9a5.17 5.17 0 0 0-2.88 3.32 6.74 6.74 0 0 0-.32 2.66c.11 1.3.74 2.28 1.99 2.74.21.09.46.14.79.19zm.11-5.11c.24-.88.88-2.34 1.97-1.97.86.26.91 2.81 0 4.13-.69 1.04-1.76 1.21-2.11-.16a3.95 3.95 0 0 1 .14-2zM35.47 17.48l-.42-1.86c-1.13.39-2.8 1.23-3.24-.49 1.88.17 3.52-.44 4.45-2.06 2.32-4.08-3.45-5.55-5.93-2.28A6.36 6.36 0 0 0 29 14.72s-.12 1.46.86 2.64c1.47 1.77 4.34.56 5.61.12zm-2.13-6.29c.69-.14.96.35.81.95-.06.26-.16.51-.39.74-.42.42-1.09.54-1.88.51.14-.95.6-2.02 1.46-2.2zM42.21 13.29c.37 1.47 2.5 1.67 2.75 2.35.49 1.22-1.78 1.39-3.08.34L41 17.84c.67.86 2.76 1.09 4.08.81 1.6-.32 2.5-1.62 2.57-3.2.05-.72-.11-1.09-.74-1.67-.56-.49-1.2-.63-1.71-.98-.28-.18-.38-.23-.35-.58.04-.62.55-.6 1.32-.58l-.16.96 1.78-.03L48.95 9l-2.18.02-.11.54c-1.09-.07-2.36-.11-3.23.58 0 0-1.68 1.36-1.22 3.15M68.02 18.07c.23.21.58.42 1.09.56a4.3 4.3 0 0 0 1.9.11c.41-.04.72-.14.99-.2.35-.1.63-.21.98-.35.14-.07.3-.12.46-.21l-.42-1.83c-.78.25-3.61 1.69-3.31-1.58.18-1.88.76-3.13 2.85-2.88l-.16.91 1.76-.03L75.34 9h-2.15l-.17.63c-2.48-.26-3.82.44-4.86 1.85a6.62 6.62 0 0 0-1.14 4.41c.07.81.35 1.62 1 2.18"/><path fill="#666" d="M37 17.48h2.39l1.41-6.75 1.35.03.67-2.09h-1.56L41.8 6h-2.13l-.79 2.67H37.6l-.41 2.06h1.08zM12.73 11.78c.47-1 .79-2.46.91-3.37.11-.88-.14-1.25-1.07-1.39a.88.88 0 0 0-.74.16c-.35.26-.3.72-.44 1.49-.23 1.58-.72 3.27-.05 3.83.72.58 1.14-.14 1.39-.72M14.64 12.65c.74-1.23 1.67-3.38 1.2-4.1-.39-.58-1.48-.89-1.81.04-.25.72-.48 1.84-.67 2.46-.21.67-.53 1.58-.25 2.04.48.84 1.2.07 1.53-.44M43 7.57h1.74L45.99 4h-2.25z"/></svg>