<svg xmlns="http://www.w3.org/2000/svg" width="17" height="27" viewBox="0 0 17 27"><path fill="#fff" d="M6.88 19.14c-2.12-.21-4.04-.7-5.68-1.89-.2-.15-.41-.3-.6-.46-.72-.65-.79-1.39-.22-2.15.48-.65 1.3-.82 2.15-.45l.47.26a9.86 9.86 0 0 0 10.32.09c.31-.22.63-.39 1.01-.48.73-.18 1.41.07 1.81.67.45.68.44 1.35-.11 1.88a8.45 8.45 0 0 1-3.01 1.81c-1.07.39-2.24.59-3.41.72l.37.36c1.58 1.49 3.17 2.96 4.74 4.45.54.5.65 1.13.35 1.72a1.9 1.9 0 0 1-1.75 1.02c-.45-.03-.8-.24-1.11-.53-1.19-1.12-2.41-2.22-3.57-3.36-.34-.33-.51-.27-.8.02-1.2 1.15-2.42 2.29-3.65 3.41-.55.51-1.2.6-1.84.31-.68-.31-1.11-.95-1.07-1.6.02-.44.25-.78.57-1.08a1869.81 1869.81 0 0 0 5.03-4.72z"/><path fill="#fff" d="M7.88 13.95C4.09 13.94.98 11.01 1 7.46 1.02 3.88 4.13.99 7.96 1c3.84.01 6.92 2.94 6.9 6.56-.02 3.54-3.15 6.41-6.98 6.39zm3.44-6.48c0-1.76-1.51-3.16-3.39-3.16-1.89 0-3.41 1.42-3.39 3.2.01 1.75 1.52 3.14 3.41 3.14 1.88-.01 3.38-1.42 3.37-3.18z"/></svg>