<svg xmlns="http://www.w3.org/2000/svg" width="11" height="19" viewBox="0 0 11 19"><path fill="#fff" d="M1.15 0C.51 0 0 .53 0 1.17v16.32c0 .64.51 1.17 1.15 1.17h8.66c.63 0 1.14-.53 1.14-1.17V1.17C10.95.53 10.44 0 9.81 0zm8.66 18.19H1.15a.7.7 0 0 1-.69-.7v-2.84H10.5v2.84a.7.7 0 0 1-.69.7zm.69-4H.46V1.17c0-.39.31-.7.69-.7h8.66a.7.7 0 0 1 .69.7zM6.71 1.69c0-.13-.1-.23-.23-.23h-2c-.13 0-.23.1-.23.23s.1.24.23.24h2c.13 0 .23-.11.23-.24zm-.25 14.78a1 1 0 0 0-.98-1 1 1 0 0 0-.98 1 1 1 0 0 0 .98 1 1 1 0 0 0 .98-1zm-.46 0c0 .3-.24.53-.52.53a.52.52 0 0 1-.52-.53c0-.29.23-.53.52-.53.28 0 .52.24.52.53z"/></svg>