<svg xmlns="http://www.w3.org/2000/svg" xmlns:xlink="http://www.w3.org/1999/xlink" width="7" height="18" viewBox="0 0 7 18"><defs><path id="n0bva" d="M1178.54 99.8a12.12 12.12 0 0 1-3.14-5.65c-.53-2.1-.53-4.2 0-6.3.56-2.17 1.6-4.06 3.14-5.66.12-.1.26-.16.4-.18.15-.03.28.01.4.11l2.34 1.5c.14.07.24.19.3.34.04.15.03.3-.05.45l-1.16 3.03a.6.6 0 0 1-.26.3.75.75 0 0 1-.4.11l-2.04-.22a10.7 10.7 0 0 0 0 6.74l2.04-.22c.15 0 .28.03.4.11.12.07.2.17.26.3l1.16 3.03a.58.58 0 0 1-.25.8l-2.34 1.49a.48.48 0 0 1-.4.11.85.85 0 0 1-.4-.18z"/></defs><g><g transform="translate(-1175 -82)"><use fill="#e62e04" xlink:href="#n0bva"/></g></g></svg>