<svg xmlns="http://www.w3.org/2000/svg" width="30" height="14" viewBox="0 0 30 14"><defs><clipPath id="a"><path fill="#fff" d="M1075 619a7 7 0 1 1 14 0 7 7 0 0 1-14 0z"/></clipPath><clipPath id="b"><path fill="#fff" d="M1091 619a7 7 0 1 1 14 0 7 7 0 0 1-14 0z"/></clipPath></defs><path fill="none" stroke="#e2e2e2" stroke-miterlimit="50" stroke-width="4" d="M1075 619a7 7 0 1 1 14 0 7 7 0 0 1-14 0z" clip-path="url(&quot;#a&quot;)" transform="translate(-1075 -612)"/><path fill="none" stroke="#e2e2e2" stroke-miterlimit="50" stroke-width="4" d="M1091 619a7 7 0 1 1 14 0 7 7 0 0 1-14 0z" clip-path="url(&quot;#b&quot;)" transform="translate(-1075 -612)"/></svg>