<svg xmlns="http://www.w3.org/2000/svg" width="31" height="17" viewBox="0 0 31 17"><path fill="#fff" d="M26.82 10.6c.99.95 2.04 1.85 2.94 2.9.39.47.76.95 1.05 1.49.4.77.04 1.62-.66 1.66h-4.38a3.4 3.4 0 0 1-2.78-1.11c-.6-.61-1.16-1.25-1.74-1.88a4.3 4.3 0 0 0-.79-.68c-.6-.38-1.12-.27-1.46.35-.34.62-.42 1.3-.46 2-.04 1.01-.35 1.27-1.39 1.32-2.21.1-4.3-.23-6.25-1.32a13.8 13.8 0 0 1-4.21-3.87c-2.26-3-3.99-6.3-5.54-9.69C.8 1.01 1.06.6 1.92.58 3.34.55 4.77.56 6.2.58c.57.01.96.33 1.18.87a26.09 26.09 0 0 0 2.9 5.28c.32.43.64.87 1.1 1.18.5.34.89.23 1.13-.33.15-.35.22-.73.25-1.1.11-1.3.13-2.59-.07-3.88-.12-.81-.58-1.33-1.4-1.48-.42-.08-.36-.23-.16-.47.36-.4.69-.65 1.34-.65h4.94c.78.15.95.49 1.06 1.26v5.39c0 .3.16 1.18.7 1.37.44.14.73-.2.99-.47a16.85 16.85 0 0 0 2.78-4.2c.33-.66.62-1.35.9-2.04.21-.51.53-.76 1.12-.75l4.75.01c.14 0 .28 0 .42.02.8.14 1.02.47.77 1.24-.39 1.21-1.14 2.21-1.89 3.22-.79 1.08-1.64 2.12-2.42 3.2-.73.99-.67 1.49.23 2.35z"/></svg>